<?xml version="1.0" encoding="utf-8"?>
<!-- Generator: Adobe Illustrator 19.1.0, SVG Export Plug-In . SVG Version: 6.00 Build 0)  -->
<svg version="1.2" baseProfile="tiny" id="Layer_1" xmlns="http://www.w3.org/2000/svg" xmlns:xlink="http://www.w3.org/1999/xlink"
	 x="0px" y="0px" viewBox="0 0 80 80" xml:space="preserve">
<g>
	<path fill="#7C7C81" d="M39,0C17.5,0,0,17.5,0,39s17.5,39,39,39s39-17.5,39-39S60.5,0,39,0z M39,76C18.6,76,2,59.4,2,39
		C2,18.6,18.6,2,39,2c20.4,0,37,16.6,37,37C76,59.4,59.4,76,39,76z"/>
	<polygon fill="#7C7C81" points="40,28 38,28 38,38 28,38 28,40 38,40 38,50 40,50 40,40 50,40 50,38 40,38 	"/>
</g>
</svg>
