<?xml version="1.0" encoding="utf-8"?>
<!-- Generator: Adobe Illustrator 19.1.0, SVG Export Plug-In . SVG Version: 6.00 Build 0)  -->
<svg version="1.2" baseProfile="tiny" id="Capa_1" xmlns="http://www.w3.org/2000/svg" xmlns:xlink="http://www.w3.org/1999/xlink"
	 x="0px" y="0px" viewBox="31 -31 86 86" xml:space="preserve">
<path fill="#FFFFFF" d="M108.3-13.8c1.4,2.6,2,5.7,2,9.6c0,8.7-3.7,15.7-10.9,21c-7.3,5.3-17.5,8-30.6,8h-3.1c-2.3,0-4.6,1.8-5.1,4
	l-3.7,15.7c-0.5,2.2-2.8,4-5.1,4h-6.7L44.5,51c-0.5,2.2,0.9,4,3.2,4h10.7c2.3,0,4.6-1.8,5.1-4l3.7-15.7c0.5-2.2,2.8-4,5.1-4h3.1
	c13.1,0,23.3-2.6,30.6-8C113.3,18,117,11,117,2.3c0-3.8-0.7-7-2-9.6c-1.4-2.5-3.3-4.6-5.9-6.2C108.8-13.6,108.6-13.7,108.3-13.8z
	 M50.2,37.8l3.7-15.7c0.5-2.2,2.8-4,5.1-4h3.1c13.1,0,23.3-2.6,30.6-8c7.3-5.3,10.9-12.3,10.9-21c0-3.8-0.7-7-2-9.6
	c-1.4-2.5-3.3-4.6-5.9-6.2c-2.6-1.6-5.7-2.7-9.3-3.4c-3.6-0.7-7.8-1-12.6-1H51.4c-2.3,0-4.6,1.8-5.1,4L31.1,37.8
	c-0.5,2.2,0.9,4,3.2,4h10.7C47.4,41.8,49.7,40,50.2,37.8z M59,0.2l3.2-13.7c0.5-2.2,2.8-4,5.1-4h3.5c4.1,0,7.2,0.7,9.3,2.1
	c2.1,1.4,3.1,3.5,3.1,6.3c0,4.3-1.6,7.6-4.8,9.9c-3.2,2.3-7.7,3.5-13.5,3.5h-2.7C59.9,4.2,58.5,2.4,59,0.2z"/>
</svg>
