<?xml version="1.0" encoding="utf-8"?>
<!-- Generator: Adobe Illustrator 19.1.0, SVG Export Plug-In . SVG Version: 6.00 Build 0)  -->
<svg version="1.2" baseProfile="tiny" id="Layer_1" xmlns="http://www.w3.org/2000/svg" xmlns:xlink="http://www.w3.org/1999/xlink"
	 x="0px" y="0px" viewBox="244 -244 512 512" xml:space="preserve">
<path d="M736-134.5c-17.4,7.7-36,12.9-55.6,15.3c20-12,35.4-31,42.6-53.6c-18.7,11.1-39.4,19.2-61.5,23.5
	c-17.7-18.9-42.9-30.7-70.7-30.7c-53.5,0-96.8,43.4-96.8,96.9c0,7.6,0.8,15,2.5,22.1c-80.5-4-151.9-42.6-199.6-101.3
	c-8.3,14.3-13.1,31-13.1,48.7c0,33.6,17.1,63.3,43.1,80.7C311-33.3,296-37.7,283-45c0,0.4,0,0.8,0,1.2c0,47,33.4,86.1,77.7,95
	c-8.1,2.2-16.7,3.4-25.5,3.4c-6.2,0-12.3-0.6-18.2-1.8c12.3,38.5,48.1,66.5,90.5,67.3c-33.1,26-74.9,41.5-120.3,41.5
	c-7.8,0-15.5-0.5-23.1-1.4C306.9,188,357.8,204,412.4,204C590.6,204,688,56.3,688-71.8c0-4.2-0.1-8.4-0.3-12.5
	C706.6-98,723-115.1,736-134.5z"/>
</svg>
