<?xml version="1.0" encoding="utf-8"?>
<!-- Generator: Adobe Illustrator 19.1.0, SVG Export Plug-In . SVG Version: 6.00 Build 0)  -->
<svg version="1.2" baseProfile="tiny" id="Layer_1" xmlns="http://www.w3.org/2000/svg" xmlns:xlink="http://www.w3.org/1999/xlink"
	 x="0px" y="0px" viewBox="0 0 24 24" xml:space="preserve">
<g>
	<path fill="#FFFFFF" d="M24,24H0V0h24V24z M2,22H22V2H2V22z"/>
	<path fill="#FFFFFF" d="M14.6,5h-1.5h-2h0v6H9.5c-1.2,0-2,0.5-2.7,1.1c-0.6,0.6-0.9,1.6-0.9,2.7c0,2.7,1.2,4.1,3.6,4.1H11h2h0v-6
		h1.6c1.2,0,2-0.6,2.7-1.2c0.6-0.6,0.9-1.5,0.9-2.7C18.2,6.4,17,5,14.6,5z M11,17h-0.5c-0.5,0-1.1,0.1-1.4,0
		c-0.3-0.1-0.5-0.2-0.7-0.4c-0.2-0.2-0.3-0.1-0.3-0.4C8,15.9,7.9,15.5,7.9,15c0-0.4,0-0.7,0.1-1c0.1-0.3,0.3-0.5,0.5-0.6
		c0.2-0.1,0.5-0.2,0.8-0.3C9.7,13,10,13,10.5,13H11V17z M16,9.9c-0.1,0.3-0.3,0.5-0.5,0.6c-0.2,0.1-0.5,0.3-0.8,0.3
		C14.4,10.9,14,11,13.6,11H13V7h0.5c0.5,0,1.2,0,1.5,0.1c0.3,0.1,0.5,0.1,0.7,0.3C15.9,7.6,16,7.5,16,7.9c0.1,0.3,0.1,0.6,0.1,1.1
		C16.1,9.4,16.1,9.7,16,9.9z"/>
</g>
</svg>
